# xmcd
#
# Track frame offsets:
#	150
#	49809
#	68619
#	99471
#	119235
#	147241
#	178600
#
# Disc length: 3326 seconds
#
# Revision: 1
# Processed by: cddbd v1.5.2PL0 Copyright (c) Steve Scherf et al.
# Submitted via: audiograbber 1.83.01
#
DISCID=640cfc07
DTITLE=The Groundhogs - Hoggin' The Stage Plus CD2
DYEAR=1976
DGENRE=Blues
TTITLE0=Split Pt. 2 (Live in Stockholm 1976)
TTITLE1=Boogie With Us (Live in Stockholm 1976)
TTITLE2=Your Love Keeps Me Alive (Live in Stockholm 1976)
TTITLE3=Live Right (Live in Stockholm 1976)
TTITLE4=I Love You Miss Ogyny (Live in Stockholm 1976)
TTITLE5=Light My Light (Live in Stockholm 1976)
TTITLE6=Cherry Red (Live in Stockholm 1976)
EXTD=TECD101\n2 CD Set
EXTT0=
EXTT1=
EXTT2=
EXTT3=
EXTT4=
EXTT5=
EXTT6=
PLAYORDER=
